<svg width="62" height="61" viewBox="0 0 62 61" fill="none" xmlns="http://www.w3.org/2000/svg">
<g clip-path="url(#clip0_0_1743)">
<path d="M23.5503 7.27C23.5503 3.34 20.3703 0 16.4003 0C12.4303 0 9.25031 3.34 9.25031 7.27C9.25031 11.2 12.4603 14.42 16.4003 14.42C20.3403 14.42 23.5503 11.21 23.5503 7.27ZM16.4003 10.84C14.4303 10.84 12.8303 9.24 12.8303 7.27C12.8303 5.3 14.4703 3.58 16.4003 3.58C18.3303 3.58 19.9703 5.27 19.9703 7.27C19.9703 9.27 18.3703 10.84 16.4003 10.84ZM55.9603 0H30.7003C27.7403 0 25.3403 2.41 25.3403 5.36V17.56L23.7703 15.99C22.7603 14.98 21.4103 14.42 19.9803 14.42H9.26031C4.33031 14.42 0.320312 18.42 0.320312 23.35V34.07C0.320312 37.03 2.73031 39.44 5.68031 39.44C6.31031 39.44 6.91031 39.33 7.47031 39.13V55.64C7.47031 58.6 9.88031 61 12.8303 61C14.2003 61 15.4503 60.48 16.4003 59.63C17.3503 60.48 18.6003 61 19.9703 61C22.9303 61 25.3303 58.6 25.3303 55.64V31.98C26.7003 32.46 28.2103 32.37 29.5103 31.72L35.5303 28.71H55.9503C58.9103 28.71 61.3103 26.3 61.3103 23.35V5.36C61.3103 2.4 58.9003 0 55.9503 0H55.9603ZM35.0703 24.95L27.9203 28.52C27.2503 28.85 26.4203 28.75 25.8503 28.19L24.8003 27.14C23.6903 26.04 21.7503 26.79 21.7503 28.4V55.63C21.7503 56.62 20.9503 57.42 19.9603 57.42C18.9703 57.42 18.1703 56.62 18.1703 55.63V37.64C18.1703 36.65 17.3703 35.85 16.3803 35.85C15.3903 35.85 14.5903 36.65 14.5903 37.64V55.63C14.5903 56.62 13.7903 57.42 12.8003 57.42C11.8103 57.42 11.0103 56.62 11.0103 55.63V23.35C11.0103 22.36 10.2103 21.56 9.22031 21.56C8.23031 21.56 7.43031 22.36 7.43031 23.35V34.07C7.43031 35.06 6.63031 35.86 5.64031 35.86C4.65031 35.86 3.85031 35.06 3.85031 34.07C3.85031 32.72 3.85031 24.45 3.85031 23.35C3.85031 20.39 6.26031 17.99 9.21031 17.99H19.9303C20.4103 17.99 20.8603 18.18 21.1903 18.51L26.5203 23.84C27.0603 24.38 27.8903 24.52 28.5803 24.17L33.4303 21.75C34.3203 21.31 35.3903 21.67 35.8303 22.55C36.2703 23.43 35.9103 24.51 35.0303 24.95H35.0703ZM57.7503 23.35C57.7503 24.34 56.9503 25.14 55.9603 25.14H39.3303C39.3303 25.14 39.3503 25.08 39.3603 25.05C39.6203 24.28 39.6903 23.48 39.6003 22.69L49.3703 17.8C50.2503 17.36 50.6103 16.28 50.1703 15.4C49.7303 14.52 48.6603 14.16 47.7703 14.6L38.0003 19.49C36.4303 17.98 34.0003 17.49 31.8803 18.55L28.9203 20.03V5.36C28.9203 4.37 29.7203 3.57 30.7103 3.57H55.9703C56.9603 3.57 57.7603 4.37 57.7603 5.36V23.35H57.7503Z" fill="#3E4095"/>
</g>
<defs>
<clipPath id="clip0_0_1743">
<rect width="61" height="61" fill="white" transform="translate(0.320312)"/>
</clipPath>
</defs>
</svg>
