<svg width="65" height="58" viewBox="0 0 65 58" fill="none" xmlns="http://www.w3.org/2000/svg">
<path d="M35.08 39.3201V28.0501C35.08 25.7101 33.17 23.8101 30.83 23.8101H14.45C12.1 23.8101 10.2 25.7101 10.2 28.0501V39.3201C10.2 41.6601 12.11 43.5601 14.45 43.5601H30.83C33.18 43.5601 35.08 41.6601 35.08 39.3201ZM32.54 39.3201C32.54 40.2601 31.77 41.0301 30.83 41.0301H14.45C13.5 41.0301 12.74 40.2601 12.74 39.3201V28.0501C12.74 27.1101 13.51 26.3401 14.45 26.3401H30.83C31.78 26.3401 32.54 27.1101 32.54 28.0501V39.3201ZM24.96 32.5901L21.59 30.6501C21.2 30.4201 20.71 30.4201 20.32 30.6501C19.93 30.8801 19.69 31.2901 19.69 31.7501V35.6301C19.69 36.0801 19.93 36.5001 20.32 36.7301C20.52 36.8401 20.74 36.9001 20.95 36.9001C21.16 36.9001 21.39 36.8401 21.58 36.7301L24.95 34.7901C25.34 34.5601 25.58 34.1501 25.58 33.6901C25.58 33.2301 25.34 32.8201 24.95 32.5901H24.96ZM48.46 0.140059C48.09 -0.0499414 47.66 -0.0499414 47.29 0.140059L31.44 8.37006C31.02 8.59006 30.76 9.02006 30.76 9.49006C30.76 9.96006 31.02 10.3901 31.44 10.6101L37.54 13.7801V16.4501H12.06C7.37 16.4501 3.55 20.2601 3.55 24.9301V48.3601H1.27C0.57 48.3801 0 48.9401 0 49.6401C0 54.2501 3.76 58.0001 8.38 58.0001H49.77C54.39 58.0001 58.15 54.2501 58.15 49.6401C58.15 48.9401 57.58 48.3701 56.88 48.3701H54.59V24.9401C54.59 24.7601 54.59 24.5901 54.57 24.4101L57.44 23.1901C57.91 22.9901 58.21 22.5301 58.21 22.0201V13.7801L62.46 11.5701V19.3201C62.46 20.0201 63.03 20.5901 63.73 20.5901L64.32 8.36006L48.46 0.140059ZM55.47 50.9101C54.89 53.5201 52.55 55.4701 49.77 55.4701H8.38C5.6 55.4701 3.26 53.5201 2.68 50.9101H23.36C24.06 50.9101 24.63 50.3401 24.63 49.6401C24.63 48.9401 24.06 48.3701 23.36 48.3701H6.09V24.9401C6.09 21.6601 8.77 18.9901 12.06 18.9901H37.54V22.0301C37.54 22.5401 37.84 23.0001 38.31 23.2001L47.38 27.0401C47.54 27.1101 47.71 27.1401 47.88 27.1401C48.05 27.1401 48.22 27.1101 48.38 27.0401L52.06 25.4801V48.3701H34.79C34.09 48.3701 33.52 48.9401 33.52 49.6401C33.52 50.3401 34.09 50.9101 34.79 50.9101H55.47ZM55.67 21.2001L47.87 24.5001L40.07 21.2001V15.1101L47.28 18.8501C47.46 18.9501 47.66 18.9901 47.87 18.9901C48.08 18.9901 48.27 18.9401 48.46 18.8501L55.67 15.1101V21.2001ZM47.88 16.3001L34.78 9.50006L47.88 2.70006L60.98 9.50006L47.88 16.3001ZM46.98 8.60006C46.74 8.84006 46.61 9.16006 46.61 9.50006C46.61 9.84006 46.75 10.1601 46.98 10.4001C47.22 10.6401 47.54 10.7701 47.88 10.7701C48.22 10.7701 48.54 10.6301 48.78 10.4001C49.02 10.1701 49.15 9.84006 49.15 9.50006C49.15 9.16006 49.01 8.84006 48.78 8.60006C48.54 8.36006 48.22 8.23006 47.88 8.23006C47.55 8.23006 47.22 8.37006 46.98 8.60006ZM40.24 43.5601H47.18C47.88 43.5601 48.45 42.9901 48.45 42.2901C48.45 41.5901 47.88 41.0201 47.18 41.0201H40.24C39.54 41.0201 38.97 41.5901 38.97 42.2901C38.97 42.9901 39.54 43.5601 40.24 43.5601ZM40.24 37.4801H47.18C47.88 37.4801 48.45 36.9101 48.45 36.2101C48.45 35.5101 47.88 34.9401 47.18 34.9401H40.24C39.54 34.9401 38.97 35.5101 38.97 36.2101C38.97 36.9101 39.54 37.4801 40.24 37.4801ZM29.07 48.3801C28.74 48.3801 28.41 48.5201 28.17 48.7501C27.93 48.9901 27.8 49.3101 27.8 49.6501C27.8 49.9901 27.94 50.3101 28.17 50.5501C28.41 50.7901 28.73 50.9201 29.07 50.9201C29.41 50.9201 29.73 50.7801 29.97 50.5501C30.21 50.3101 30.34 49.9901 30.34 49.6501C30.34 49.3101 30.2 48.9901 29.97 48.7501C29.73 48.5101 29.41 48.3801 29.07 48.3801Z" fill="#3E4095"/>
</svg>
