<svg width="61" height="61" viewBox="0 0 61 61" fill="none" xmlns="http://www.w3.org/2000/svg">
<path d="M55.37 48.35L53.51 47.7C54.73 46.53 55.41 44.92 55.41 43.22V41.44C55.41 38 52.61 35.2 49.17 35.2C45.73 35.2 42.93 38 42.93 41.44V43.22C42.93 44.93 43.62 46.53 44.83 47.7L42.97 48.35C41.43 48.88 40.1 49.85 39.1 51.14H33.05V48.9C33.05 45.33 30.79 42.15 27.42 40.98L25.56 40.33C26.78 39.16 27.46 37.56 27.46 35.85V34.07C27.46 30.63 24.66 27.83 21.22 27.83C17.78 27.83 14.98 30.63 14.98 34.07V35.85C14.98 37.56 15.67 39.16 16.88 40.33L15.02 40.98C11.65 42.15 9.39 45.33 9.39 48.9V51.14H1.25C0.56 51.14 0 51.7 0 52.38V59.75C0 60.44 0.56 61 1.25 61H38.35C38.35 61 38.43 61 38.47 61C38.51 61 38.55 61 38.59 61H59.76C60.45 61 61.01 60.44 61.01 59.75V56.26C61.01 52.69 58.75 49.51 55.38 48.34L55.37 48.35ZM17.47 34.07C17.47 32 19.15 30.32 21.22 30.32C23.29 30.32 24.97 32 24.97 34.07V35.85C24.97 37.92 23.29 39.6 21.22 39.6C19.15 39.6 17.47 37.92 17.47 35.85V34.07ZM23.44 42.23L21.22 46.08L19 42.23L19.41 42.09H23.03L23.44 42.23ZM11.89 48.89C11.89 46.38 13.48 44.15 15.85 43.33L16.62 43.06L20.15 49.19C20.37 49.57 20.78 49.81 21.23 49.81C21.68 49.81 22.09 49.57 22.31 49.19L25.84 43.06L26.61 43.33C28.98 44.15 30.57 46.39 30.57 48.89V51.13H11.89V48.89ZM37.34 56.27V58.51H2.49V53.63H37.77C37.49 54.48 37.34 55.37 37.34 56.27ZM45.42 41.44C45.42 39.37 47.1 37.69 49.17 37.69C51.24 37.69 52.92 39.37 52.92 41.44V43.22C52.92 45.29 51.24 46.97 49.17 46.97C47.1 46.97 45.42 45.29 45.42 43.22V41.44ZM58.51 58.51H39.83V56.27C39.83 53.76 41.42 51.53 43.79 50.71L47.36 49.47H50.98L54.55 50.71C56.92 51.53 58.51 53.77 58.51 56.27V58.51ZM55 6.42H45.94C45.25 6.42 44.69 6.98 44.69 7.67C44.69 8.36 45.25 8.92 45.94 8.92H55C56.94 8.92 58.51 10.5 58.51 12.43V24.8C58.51 26.74 56.93 28.31 55 28.31H42.75C42.06 28.31 41.5 28.87 41.5 29.56V32.5L37.68 28.68C37.44 28.44 37.13 28.32 36.8 28.32H29.55C27.61 28.32 26.04 26.74 26.04 24.81V12.44C26.04 10.5 27.62 8.93 29.55 8.93H41.77C42.46 8.93 43.02 8.37 43.02 7.68C43.02 6.99 42.46 6.43 41.77 6.43H37.46V6.01C37.45 2.69 34.76 0 31.45 0H6C2.69 0 0 2.69 0 6V7.97C0 8.66 0.56 9.22 1.25 9.22C1.94 9.22 2.5 8.66 2.5 7.97V6C2.5 4.06 4.08 2.49 6.01 2.49H31.46C33.4 2.49 34.97 4.07 34.97 6V6.42H29.56C26.25 6.42 23.56 9.11 23.56 12.42V21.88H14.58C13.89 21.88 13.33 22.44 13.33 23.13V26.07L9.51 22.25C9.27 22.02 8.96 21.89 8.63 21.89H6.01C4.07 21.89 2.5 20.31 2.5 18.38V12.13C2.5 11.44 1.94 10.88 1.25 10.88C0.56 10.88 0 11.43 0 12.12V18.37C0 21.68 2.69 24.37 6 24.37H8.1L13.68 29.95C13.91 30.19 14.23 30.31 14.56 30.31C14.72 30.31 14.88 30.28 15.04 30.22C15.51 30.03 15.81 29.58 15.81 29.07V24.37H23.55V24.79C23.55 28.1 26.24 30.79 29.55 30.79H36.29L41.87 36.37C42.11 36.61 42.42 36.73 42.75 36.73C42.91 36.73 43.08 36.7 43.23 36.63C43.7 36.44 44 35.98 44 35.48V30.78H55C58.31 30.78 61 28.09 61 24.78V12.41C61 9.1 58.31 6.41 55 6.41V6.42Z" fill="#3E4095"/>
</svg>
