<svg width="111" height="135" viewBox="0 0 111 135" fill="none" xmlns="http://www.w3.org/2000/svg">
<g clip-path="url(#clip0_0_1876)">
<path d="M32.027 88.5811C34.5504 91.523 32.3133 93.1375 36.4654 96.4741C33.405 95.7565 32.2954 93.1375 26.9084 93.6756C28.3581 97.2275 33.6377 100.528 41.7092 97.6759C36.8413 95.2901 37.9688 89.8547 32.027 88.5811Z" fill="white"/>
<path d="M24.5998 75.2349C24.3313 78.697 22.7743 78.2127 23.3828 82.805C22.6669 80.4012 20.6624 77.7283 18.7117 76.1318C18.7654 78.9482 19.2128 81.047 20.5909 82.8588C21.2351 83.684 24.4924 85.7469 26.121 86.0339C25.1188 81.1008 27.0159 81.0829 24.6177 75.2349H24.5998Z" fill="white"/>
<path d="M26.98 82.1592C27.8569 85.998 26.103 86.0339 28.7339 90.8056C26.1567 87.5587 23.9912 85.6752 21.074 85.0832C22.5236 90.3213 25.584 93.1735 32.3133 93.1376C29.3245 88.2942 32.0448 85.8545 26.98 82.1592Z" fill="white"/>
<path d="M38.9532 41.0257C34.7832 40.9898 30.1121 44.6134 29.3962 47.7526C32.5819 46.8378 37.4857 43.1245 38.9532 41.0257Z" fill="white"/>
<path d="M25.5662 58.5877C26.64 57.5652 27.3737 56.4351 28.0359 54.7488C25.7988 56.1301 23.9017 56.4351 23.0069 58.6056C23.0427 57.8343 23.687 56.5786 23.8838 55.5561C24.1165 54.408 24.3134 53.0805 24.2418 51.8428C23.4722 52.2195 21.8436 54.4977 21.4678 55.9687C21.074 57.4755 21.772 60.6327 22.5595 61.7449C23.5796 60.1484 24.4923 59.5564 25.5662 58.6056V58.5877Z" fill="white"/>
<path d="M22.7743 78.2302C23.0427 73.7994 25.0293 74.0505 24.4029 68.2743C23.1501 70.7498 21.6647 71.557 21.432 74.9295C20.6266 70.3731 19.9645 69.4941 19.1233 67.4312C18.1032 69.225 17.9958 72.3463 18.8548 74.1223C19.4276 75.2883 21.8078 77.8356 22.7743 78.2302Z" fill="white"/>
<path d="M21.8973 70.1044C22.1836 69.7277 22.47 68.4541 22.7742 67.898C23.9733 65.6556 24.9935 65.7991 25.5304 61.0095C24.7966 61.5656 23.7228 62.7496 22.9711 63.4671C22.0584 64.2923 21.8257 65.2251 21.3604 66.6961C21.1993 65.1175 21.7183 61.4759 20.5729 59.126C19.696 60.6508 18.9085 63.9515 19.1412 65.3686C19.4454 67.1087 20.3402 68.7231 21.8973 70.0865V70.1044Z" fill="white"/>
<path d="M27.1769 52.901C27.8391 52.4346 28.5013 52.2194 29.2172 51.7889C30.1657 51.1969 31.7228 49.6003 32.1881 48.5599C31.0785 48.9904 30.4163 49.1339 29.1456 49.4927C27.7317 49.9053 27.4812 50.6049 26.6579 51.1072C26.8727 50.4793 28.9666 47.4477 29.0382 44.9722C27.9644 45.4386 26.1926 47.2145 25.602 48.3267C24.725 49.995 25.0651 52.4885 25.4409 54.372C25.9599 54.085 26.2463 53.5468 27.1769 52.901Z" fill="white"/>
<path d="M25.8345 68.3282V69.1354C26.0493 61.2245 29.3245 54.067 34.5504 48.8468C39.9374 43.4473 47.3467 40.1107 55.5793 40.1107C63.8119 40.1107 71.2391 43.4473 76.6082 48.8468C81.8162 54.067 85.0914 61.2245 85.3061 69.1354C85.3061 68.8663 85.3061 68.5973 85.3061 68.3282C85.3061 60.0943 81.9773 52.6319 76.5903 47.2323C71.2033 41.8507 63.7761 38.5142 55.5614 38.5142C47.3467 38.5142 39.9195 41.8507 34.5325 47.2323C29.1455 52.6319 25.8167 60.0764 25.8167 68.3282H25.8345Z" fill="white"/>
<path d="M54.595 96.1151V96.5636C54.595 96.8327 54.7024 97.1376 54.8276 97.3888C54.9171 97.5502 55.0066 97.6937 55.0066 97.6937C55.0424 97.6579 54.8276 97.03 54.7918 96.7789C54.7381 96.456 54.7918 95.9537 55.0245 95.3976V94.6621C54.9171 94.8774 54.8276 95.0926 54.756 95.3079C54.6666 95.577 54.6129 95.864 54.595 96.1331V96.1151Z" fill="white"/>
<path d="M54.3624 88.3299C54.5056 88.4375 54.6845 88.599 54.8814 88.7783V87.4868C54.1834 86.7872 53.7002 86.1414 53.7181 85.675C53.7181 85.083 54.1118 84.6166 54.7919 84.0605L54.7561 82.9662V81.5311C54.2729 81.2082 53.8434 80.8853 53.4854 80.6342C52.519 79.8987 53.7718 79.0377 54.4519 78.6609C54.5056 78.6251 54.5772 78.5892 54.6666 78.5533C54.6666 77.782 54.6308 77.0285 54.6129 76.2751C54.0939 76.024 53.6644 75.7908 53.3781 75.5934C53.038 75.3423 52.6801 75.145 52.3758 74.8938C52.1432 74.7324 51.8389 74.4992 51.7673 74.1763C51.7673 74.1045 51.7673 74.0507 51.7673 73.979C51.7673 73.9072 51.821 73.8175 51.8568 73.7637C51.9821 73.6202 52.1611 73.5305 52.3221 73.5843C52.5548 73.6381 53.3602 73.2435 53.8076 72.9026C54.255 72.5618 54.3266 72.2927 54.0939 72.3286C54.0939 72.3286 54.0939 72.2389 54.2013 72.203C54.2908 72.1672 54.0402 71.3599 53.1454 71.342C52.2505 71.324 51.5168 71.6649 51.2483 71.9878C50.962 72.2927 51.0872 72.4542 50.9083 72.5618C50.7293 72.6694 50.085 73.3332 49.9955 74.2301C49.8881 75.127 50.8725 76.3289 52.4474 76.9747C52.9127 77.1541 53.396 77.3335 53.8792 77.5129C53.6286 77.6564 53.396 77.782 53.1633 77.9075C52.4832 78.3022 51.6242 78.8583 51.5884 79.7373C51.5526 80.6163 52.179 81.2621 52.859 81.7285C53.4139 82.1231 53.9866 82.4819 54.5772 82.8227C54.4877 82.8945 54.3982 82.9483 54.3266 83.02C53.396 83.7196 52.4653 84.7421 52.5548 85.675C52.6443 86.6078 53.736 87.8097 54.3624 88.3119V88.3299ZM53.0917 71.7725C53.2349 71.7725 53.3602 71.8443 53.3602 71.916C53.3602 71.9878 53.2349 72.0595 53.0917 72.0595C52.9485 72.0595 52.8411 71.9878 52.8411 71.916C52.8411 71.8443 52.9485 71.7725 53.0917 71.7725Z" fill="white"/>
<path d="M54.9709 92.9761C54.9709 92.9761 54.8814 92.8505 54.8277 92.7788C54.774 92.707 54.7203 92.6532 54.6845 92.5815C53.9508 91.5948 54.2729 91.2002 54.4161 90.7338C54.4698 90.5903 54.6488 90.3571 54.9172 90.07V88.8682C54.6488 89.1014 54.434 89.3346 54.2192 89.5498C53.0201 90.8773 53.3602 91.541 53.5928 92.1868C53.7718 92.6353 54.4161 93.2093 54.9888 93.8192L54.953 92.9582L54.9709 92.9761Z" fill="white"/>
<path d="M56.4026 95.2723C56.331 95.057 56.2415 94.8417 56.1341 94.6265V95.3619C56.3668 95.936 56.4026 96.4203 56.3668 96.7432C56.331 97.0123 56.1162 97.6222 56.1341 97.6581C56.1341 97.6581 56.2236 97.5146 56.3131 97.3531C56.4563 97.102 56.5278 96.797 56.5457 96.528C56.5457 96.3665 56.5457 96.223 56.5457 96.0795C56.5457 95.7925 56.4742 95.5055 56.4026 95.2364V95.2723Z" fill="white"/>
<path d="M60.2505 72.5618C60.0715 72.4542 60.1789 72.2927 59.9104 71.9878C59.6241 71.6649 58.9261 71.324 58.0133 71.342C57.1185 71.342 56.85 72.1672 56.9395 72.203C57.029 72.2389 57.0469 72.3286 57.0469 72.3286C56.8143 72.2927 56.8858 72.5618 57.3333 72.9026C57.7807 73.2435 58.5861 73.6381 58.8187 73.5843C58.9977 73.5305 59.1766 73.6202 59.284 73.7637C59.3377 73.8175 59.3735 73.9072 59.3914 73.979C59.3914 74.0507 59.3914 74.1045 59.3914 74.1763C59.3377 74.4992 59.0156 74.7324 58.8008 74.8938C58.4608 75.145 58.1028 75.3423 57.7807 75.5934C57.4943 75.7908 57.0648 76.024 56.5458 76.2751L56.51 77.8358V78.5533C56.51 78.5533 56.6532 78.6251 56.7069 78.6609C57.4227 79.0377 58.6576 79.8987 57.6912 80.6342C57.3154 80.9033 56.8679 81.2262 56.4384 81.5311L56.4026 82.7151V84.0605C57.0648 84.6166 57.4227 85.083 57.4585 85.675C57.4585 86.1414 56.9574 86.7872 56.3131 87.4868L56.2773 88.7783C56.4921 88.599 56.6711 88.4375 56.8143 88.3299C57.4227 87.8097 58.5324 86.6257 58.6218 85.6929C58.7113 84.7601 57.7628 83.7196 56.85 83.038C56.7606 82.9662 56.6711 82.9124 56.5995 82.8407C57.1722 82.4819 57.7449 82.1231 58.3176 81.7464C58.9977 81.28 59.6241 80.6521 59.5704 79.7552C59.5346 78.8942 58.6934 78.3201 58.0133 77.9255C57.7807 77.7999 57.5301 77.6743 57.2796 77.5308C57.7807 77.3514 58.246 77.172 58.7113 76.9927C60.2863 76.3289 61.2527 75.145 61.1632 74.248C61.0737 73.3511 60.4115 72.6874 60.2684 72.5798L60.2505 72.5618ZM58.0491 72.0595C57.906 72.0595 57.7807 71.9878 57.7807 71.916C57.7807 71.8443 57.906 71.7725 58.0491 71.7725C58.1923 71.7725 58.3176 71.8443 58.3176 71.916C58.3176 71.9878 58.1923 72.0595 58.0491 72.0595Z" fill="white"/>
<path d="M56.2594 88.8682L56.2236 90.07C56.4921 90.3571 56.6889 90.5903 56.7247 90.7338C56.8858 91.2002 57.19 91.5769 56.4742 92.5815C56.4205 92.6532 56.3668 92.707 56.3131 92.7788C56.2594 92.8505 56.2236 92.9044 56.1699 92.9582V93.8372C56.7426 93.2273 57.369 92.6532 57.548 92.2048C57.7985 91.541 58.1207 90.8952 56.9037 89.5678C56.7068 89.3525 56.4742 89.1193 56.2415 88.8861L56.2594 88.8682Z" fill="white"/>
<path d="M52.9128 53.4751C52.9128 54.9461 54.094 56.13 55.5616 56.13C57.0291 56.13 58.2103 54.9461 58.2103 53.4751C58.2103 52.0041 57.0291 50.8022 55.5616 50.8022C54.094 50.8022 52.9128 52.0041 52.9128 53.4751Z" fill="white"/>
<path d="M64.4204 53.1165C62.8633 49.7799 59.4808 47.4658 55.5614 47.4658C51.642 47.4658 48.2594 49.7799 46.7024 53.1165C46.7024 53.1165 49.369 48.4524 55.5614 48.4524C61.7537 48.4524 64.4204 53.1165 64.4204 53.1165Z" fill="white"/>
<path d="M83.2124 61.3142C82.4786 60.7223 81.7628 60.1841 81.029 59.6639C78.7203 59.5383 67.1409 59.2333 58.2641 64.4714C57.9419 64.1485 57.6019 63.8256 57.2618 63.5386C66.1924 58.5517 78.0402 58.8925 80.0983 58.9822C79.5077 58.5876 78.935 58.1929 78.3623 57.8521C75.8747 57.7983 65.3334 57.9059 56.9755 63.2875C56.5996 62.9646 56.2059 62.6596 55.7943 62.3726C56.0985 62.1932 56.4028 62.0138 56.707 61.8345C56.9039 61.9959 57.1187 62.1574 57.3155 62.3188C57.1544 62.1394 56.9755 61.96 56.7965 61.7806C65.3513 56.9731 76.161 57.2242 77.4317 57.296C76.859 56.9551 76.34 56.6322 75.7852 56.3632C73.4765 56.399 63.9553 56.8296 56.5459 61.5654C56.2954 61.3322 56.0448 61.1169 55.7764 60.9016C63.0604 56.1658 73.1006 55.8609 74.6935 55.7712C74.1566 55.5021 73.6554 55.233 73.1543 54.9998C70.8098 55.2151 62.3267 56.1838 56.5459 60.0585C56.2596 59.7894 55.9553 59.5383 55.6511 59.3051C62.0045 54.9998 71.5257 54.6411 72.2595 54.6231C71.8121 54.4258 71.4004 54.2464 70.9888 54.085C68.519 54.354 60.6265 55.4304 55.5795 59.2513C50.5505 55.4304 42.64 54.354 40.1702 54.085C39.7586 54.2464 39.347 54.4258 38.9174 54.6231C39.6512 54.6231 49.1903 55.0178 55.5258 59.3051C55.2216 59.5383 54.9173 59.7894 54.631 60.0585C48.8682 56.1838 40.385 55.2151 38.0405 55.0178C37.5215 55.251 37.0204 55.5201 36.4835 55.7891C38.0763 55.8788 48.1344 56.1838 55.4005 60.9196C55.1321 61.1348 54.8815 61.3501 54.631 61.5833C47.2216 56.8475 37.7005 56.399 35.3917 56.3811C34.8548 56.6681 34.3179 56.991 33.7452 57.3139C35.0338 57.2601 45.8257 56.991 54.3804 61.7986C54.2014 61.978 54.0225 62.1394 53.8614 62.3367C54.0583 62.1753 54.2551 62.0138 54.4699 61.8524C54.7742 62.0318 55.0784 62.2112 55.3826 62.3905C54.9889 62.6776 54.5952 62.9825 54.2014 63.3054C45.8436 57.9238 35.3023 57.8162 32.7967 57.87C32.224 58.2288 31.6692 58.6234 31.0786 59.0001C33.1367 58.9105 44.9666 58.5696 53.8972 63.5566C53.5572 63.8615 53.2171 64.1665 52.895 64.4894C44.0181 59.2513 32.4208 59.5562 30.1121 59.6818C29.3963 60.202 28.6804 60.7402 27.9287 61.3322C30.4522 61.0093 43.0158 59.7177 52.5728 64.8123C53.0381 65.0634 53.5035 65.3325 53.9509 65.6016C52.8592 66.5703 51.8569 67.6286 50.9263 68.8485C51.8569 67.6645 52.9308 66.6061 54.0762 65.6913C54.5057 65.9603 54.9173 66.2474 55.329 66.5344C52.9308 68.4897 50.8905 71.0011 49.5124 74.1942C50.98 71.0011 53.0918 68.5614 55.5795 66.7138C58.0672 68.5794 60.179 71.019 61.6466 74.1942C60.2685 70.9832 58.2283 68.4897 55.8301 66.5164C56.2417 66.2115 56.6533 65.9424 57.0829 65.6733C58.2462 66.6061 59.3021 67.6466 60.2506 68.8485C59.3379 67.6286 58.3177 66.5523 57.226 65.5836C57.6735 65.2966 58.1388 65.0455 58.6041 64.7943C68.1432 59.6998 80.7068 60.9913 83.2482 61.3142H83.2124ZM54.6131 60.0406C54.9173 59.7895 55.2395 59.5562 55.5795 59.341C55.9017 59.5742 56.2238 59.8074 56.5459 60.0406C56.2238 60.2559 55.9017 60.4891 55.5795 60.7223C55.2753 60.4891 54.9531 60.2559 54.6131 60.0226V60.0406ZM54.7205 61.6192C55.0068 61.4039 55.2932 61.2066 55.5795 61.0093C55.8659 61.2066 56.1522 61.4039 56.4386 61.6192C56.1522 61.7986 55.8659 61.9959 55.5795 62.1932C55.2932 61.9959 55.0068 61.7986 54.7205 61.6192ZM55.5616 62.4982C55.9911 62.7673 56.4207 63.0543 56.8323 63.3592C56.4028 63.6463 55.9732 63.9333 55.5616 64.2382C55.15 63.9333 54.7205 63.6283 54.2909 63.3592C54.7026 63.0543 55.1321 62.7673 55.5616 62.4982ZM52.9129 64.4894C53.2708 64.1844 53.6287 63.8795 54.0046 63.6104C54.4699 63.8615 54.9173 64.1485 55.3469 64.4356C54.971 64.7226 54.5952 65.0275 54.2372 65.3325C53.8077 65.0455 53.3603 64.7585 52.9308 64.4894H52.9129ZM55.5795 66.3012C55.1858 65.9962 54.792 65.6913 54.3804 65.4222C54.7742 65.1172 55.1679 64.8481 55.5795 64.5611C55.9911 64.8302 56.3849 65.1172 56.7786 65.4222C56.367 65.7092 55.9732 65.9962 55.5795 66.3012ZM56.9218 65.3145C56.5459 64.9917 56.188 64.7046 55.7943 64.3997C56.2417 64.1127 56.6891 63.8436 57.1365 63.5924C57.5124 63.8795 57.8703 64.1665 58.2283 64.4894C57.7808 64.7585 57.3513 65.0275 56.9218 65.3145Z" fill="white"/>
<path d="M68.7158 53.3677C68.7158 53.3677 61.6286 53.9596 55.5794 58.0317C49.5302 53.9417 42.4609 53.3677 42.4609 53.3677L41.1187 53.7264C41.1187 53.7264 48.6712 54.0673 55.5794 58.0317C62.5055 54.0493 70.058 53.7264 70.058 53.7264L68.7158 53.3677Z" fill="white"/>
<path d="M55.1677 68.2565C55.2214 79.7193 55.0961 92.7966 55.5794 99.0572C56.0626 92.8145 55.9373 79.7193 55.991 68.2565C55.8657 67.9336 55.7225 67.6107 55.5794 67.3237C55.4362 67.6287 55.293 67.9516 55.1677 68.2565Z" fill="white"/>
<path d="M88.134 58.6055C87.2391 56.4349 85.3599 56.13 83.1228 54.7487C83.785 56.4349 84.483 57.5471 85.5747 58.5876C86.6485 59.5383 87.5792 60.1303 88.5814 61.7268C89.3867 60.6326 90.0668 57.4754 89.6731 55.9506C89.2973 54.4976 87.6686 52.2014 86.917 51.8247C86.8454 53.0625 87.0243 54.372 87.257 55.538C87.4718 56.5605 88.0982 57.8342 88.134 58.5876V58.6055Z" fill="white"/>
<path d="M89.7805 66.6957C89.3152 65.2248 89.0825 64.2919 88.1698 63.4668C87.4181 62.7492 86.3264 61.5653 85.6284 61.0092C86.1832 65.7988 87.1676 65.6553 88.3667 67.8976C88.6709 68.4537 88.9752 69.7274 89.2436 70.1041C90.8185 68.7407 91.7313 67.1262 91.9997 65.3862C92.2324 63.969 91.4449 60.6683 90.5859 59.1436C89.4584 61.4935 89.9595 65.1171 89.7805 66.7137V66.6957Z" fill="white"/>
<path d="M87.7582 82.805C88.3667 78.2306 86.8275 78.697 86.5412 75.2349C84.143 81.0829 86.0401 81.1008 85.0378 86.0339C86.6665 85.7469 89.9237 83.684 90.568 82.8588C91.964 81.047 92.3935 78.9482 92.4472 76.1318C90.5143 77.7283 88.492 80.4012 87.7761 82.805H87.7582Z" fill="white"/>
<path d="M82.4069 90.8056C85.0198 86.0339 83.2838 85.998 84.1429 82.1592C79.0959 85.8725 81.7984 88.2942 78.8096 93.1376C85.5567 93.1735 88.5992 90.3213 90.0489 85.0832C87.1317 85.6752 84.9661 87.5587 82.4069 90.8056Z" fill="white"/>
<path d="M89.7267 74.9295C89.4941 71.557 87.9907 70.7498 86.7379 68.2743C86.1294 74.0685 88.0981 73.7994 88.3665 78.2302C89.333 77.8356 91.7133 75.3062 92.286 74.1223C93.1629 72.3463 93.0734 69.225 92.0354 67.4312C91.2122 69.4941 90.5142 70.3552 89.7267 74.9295Z" fill="white"/>
<path d="M78.9348 48.5418C79.4359 49.5823 80.9751 51.1788 81.9236 51.7708C82.6216 52.2193 83.2838 52.4345 83.946 52.883C84.8766 53.5467 85.1809 54.0669 85.6999 54.3539C86.0757 52.4525 86.4157 49.9769 85.5388 48.3086C84.9303 47.1964 83.1585 45.4205 82.0847 44.9541C82.1742 47.4476 84.2681 50.4792 84.465 51.0891C83.6417 50.5868 83.4091 49.8872 81.9773 49.4746C80.7245 49.0979 80.0444 48.9544 78.9348 48.5418Z" fill="white"/>
<path d="M74.6755 96.4921C78.8276 93.1555 76.5905 91.5411 79.0961 88.5991C73.1722 89.8548 74.2997 95.3082 69.4138 97.694C77.4853 100.546 82.7828 97.2455 84.2146 93.6937C78.8097 93.1555 77.718 95.7925 74.6755 96.4921Z" fill="white"/>
<path d="M81.7626 47.7526C81.0109 44.6134 76.3398 40.9898 72.1877 41.0257C73.6553 43.1245 78.5591 46.8378 81.7626 47.7526Z" fill="white"/>
<path d="M19.0695 98.6806C18.9621 98.6268 18.8547 98.6089 18.7294 98.6089C18.5147 98.6448 18.2641 98.7345 17.9778 98.8959C17.7093 99.0574 17.2798 99.3444 16.7608 99.7749C16.2239 100.205 15.8659 100.546 15.6512 100.762C15.4364 100.995 15.3111 101.21 15.2753 101.425C15.2574 101.533 15.2753 101.641 15.3111 101.748C15.3648 101.856 15.4543 101.999 15.5975 102.179L15.9196 102.591L19.8033 99.5417L19.4632 99.1112C19.3021 98.8959 19.159 98.7703 19.0695 98.6986V98.6806Z" fill="white"/>
<path d="M87.3643 31.5542L85.1809 33.5633L85.9863 34.2091L87.3643 31.5542Z" fill="white"/>
<path d="M83.248 30.4058C83.4628 30.3699 83.6775 30.1726 83.8744 29.8497C84.0892 29.5268 84.1786 29.2577 84.1428 29.0424C84.107 28.8451 83.9281 28.6299 83.588 28.4146L83.1585 28.1455L82.031 29.8856L82.4605 30.1726C82.7827 30.3699 83.0511 30.4417 83.2659 30.3878L83.248 30.4058Z" fill="white"/>
<path d="M90.9439 36.8819C91.1587 36.8819 91.3913 36.7383 91.6777 36.4513C91.9282 36.2181 92.0535 35.9849 92.0535 35.7876C92.0535 35.5723 91.9104 35.3391 91.6419 35.0521L91.2303 34.6216L89.8164 35.9849L90.2996 36.4872C90.5323 36.7383 90.7649 36.8639 90.9618 36.8639L90.9439 36.8819Z" fill="white"/>
<path d="M19.1592 105.945L21.6469 104.295L20.931 103.56L19.1592 105.945Z" fill="white"/>
<path d="M8.79676 85.9801C8.63569 85.9263 8.36723 85.9801 7.9914 86.0877C7.66925 86.1954 7.47238 86.3209 7.3829 86.4824C7.31131 86.6259 7.31131 86.8591 7.41869 87.164L7.54397 87.5228L9.33367 86.895L9.19049 86.5183C9.10101 86.2312 8.95783 86.0519 8.77886 85.9801H8.79676Z" fill="white"/>
<path d="M74.1029 29.0425C74.2281 29.1143 74.3534 29.1322 74.4966 29.1322C74.6398 29.1322 74.8008 29.0963 74.9798 29.0246L74.8008 26.854C74.5503 26.9078 74.3534 26.9975 74.1744 27.141C73.9955 27.2845 73.8702 27.4639 73.7807 27.6612C73.6554 27.9662 73.6196 28.2353 73.6733 28.5044C73.7449 28.7734 73.8881 28.9528 74.1029 29.0425Z" fill="white"/>
<path d="M76.2861 25.3113C76.4114 25.2216 76.5009 25.114 76.5724 24.9705C76.6261 24.809 76.6619 24.6834 76.6261 24.5758C76.5903 24.4682 76.5188 24.3785 76.3935 24.3247C76.2682 24.2709 76.1608 24.2529 76.0534 24.3247C75.9461 24.3785 75.8566 24.4682 75.8029 24.6117C75.8029 24.6476 75.7671 24.6834 75.7671 24.7552V25.5804C75.9998 25.5086 76.1608 25.4369 76.2861 25.3292V25.3113Z" fill="white"/>
<path d="M27.3201 31.6617C28.0002 32.5945 28.4655 33.1506 28.734 33.33C29.0203 33.5094 29.2888 33.4915 29.5572 33.2942C29.8257 33.0968 29.9331 32.8457 29.8615 32.5228C29.7899 32.2178 29.4141 31.6079 28.7519 30.6392C28.0718 29.7064 27.6065 29.1503 27.3201 28.9709C27.0517 28.8095 26.7832 28.8095 26.5147 29.0068C26.2284 29.2041 26.1389 29.4553 26.2105 29.7782C26.2821 30.1011 26.6579 30.711 27.3201 31.6617Z" fill="white"/>
<path d="M11.714 84.8498C11.4993 84.7781 11.2129 84.814 10.8371 84.9575C10.4434 85.101 10.1928 85.2624 10.0854 85.4418C9.97804 85.6212 9.97804 85.8903 10.0854 86.267L10.2107 86.6078L12.3046 85.8723L12.1436 85.388C12.0362 85.101 11.893 84.9216 11.6961 84.8498H11.714Z" fill="white"/>
<path d="M6.25537 81.7466L9.22627 81.5851L8.99361 80.5806L6.25537 81.7466Z" fill="white"/>
<path d="M49.4407 22.3695C49.7986 22.3337 50.0313 22.226 50.1565 22.0466C50.2639 21.8852 50.2997 21.5982 50.246 21.2215C50.2102 20.8627 50.1028 20.6295 49.9418 20.5039C49.7807 20.3783 49.4943 20.3425 49.1006 20.3963L48.51 20.468L48.7606 22.4413L49.4407 22.3516V22.3695Z" fill="white"/>
<path d="M106.049 70.2477L103.114 69.853L103.15 70.8576L106.049 70.2477Z" fill="white"/>
<path d="M31.6332 120.081H20.5192V129.75H90.6215V120.081H79.5612C98.1383 111.112 110.952 92.0792 110.952 70.0326C110.952 28.989 79.1317 21.5086 55.5614 0.0180664C30.7741 21.8494 -0.277116 30.5317 0.170308 70.0146C0.438762 92.0612 13.1456 111.112 31.6332 120.063V120.081ZM32.2417 127.364H31.1678V122.808L30.0224 127.364H28.8949L27.7674 122.808V127.364H26.6936V121.552H28.4475L29.4855 125.517L30.5057 121.552H32.2596V127.364H32.2417ZM38.5056 127.364L38.0045 126.055H35.6779L35.1947 127.364H33.9598L36.2148 121.552H37.4497L39.7763 127.364H38.5056ZM46.1834 125.75C46.0402 126.18 45.8433 126.539 45.557 126.772C45.3601 126.97 45.0917 127.131 44.7337 127.239C44.4832 127.329 44.1252 127.364 43.7136 127.364H41.5123V121.552H43.642C44.1252 121.552 44.4832 121.588 44.7337 121.66C45.0738 121.768 45.378 121.947 45.6107 122.198C45.8433 122.467 46.0402 122.772 46.1655 123.131C46.2908 123.508 46.3445 123.974 46.3445 124.512C46.3445 124.997 46.2908 125.391 46.1655 125.732L46.1834 125.75ZM53.1274 127.364H51.9641V124.817H49.6733V127.364H48.4921V121.552H49.6733V123.848H51.9641V121.552H53.1274V127.364ZM60.0714 124.62C60.0714 125.319 60.0356 125.804 59.9819 126.091C59.9104 126.396 59.803 126.629 59.624 126.844C59.4629 127.042 59.2303 127.203 58.9439 127.311C58.6576 127.436 58.2817 127.49 57.8343 127.49C57.2795 127.49 56.8679 127.436 56.5815 127.293C56.2952 127.167 56.0625 127.006 55.9014 126.79C55.7404 126.593 55.6151 126.378 55.5614 126.145C55.4898 125.804 55.454 125.319 55.454 124.674V121.57H56.6173V124.71C56.6173 125.23 56.6173 125.535 56.671 125.678C56.7247 125.929 56.8321 126.109 57.0289 126.252C57.2079 126.414 57.4764 126.485 57.7985 126.485C58.1207 126.485 58.3891 126.414 58.5502 126.27C58.7113 126.127 58.8186 125.965 58.8544 125.768C58.8902 125.571 58.9081 125.23 58.9081 124.781V121.57H60.0714V124.62ZM67.1228 126.468C66.9976 126.719 66.8186 126.916 66.6038 127.077C66.3891 127.221 66.1206 127.311 65.8164 127.347C65.6195 127.347 65.1363 127.382 64.4025 127.382H62.4338V121.57H64.7604C65.2258 121.57 65.5658 121.57 65.7806 121.624C65.9953 121.66 66.2101 121.75 66.3891 121.875C66.568 122.001 66.7112 122.162 66.8365 122.36C66.9618 122.557 67.0154 122.79 67.0154 123.041C67.0154 123.31 66.9439 123.579 66.8007 123.795C66.6396 124.028 66.4427 124.207 66.1922 124.315C66.5501 124.423 66.8186 124.602 67.0154 124.853C67.2123 125.104 67.3018 125.391 67.3018 125.714C67.3018 125.983 67.2481 126.252 67.1228 126.503V126.468ZM73.3689 127.364L72.8678 126.055H70.5233L70.04 127.364H68.8051L71.0602 121.552H72.2951L74.6217 127.364H73.3689ZM83.3017 121.57H84.4829V127.382H83.3017V121.57ZM79.9013 125.463V121.57H80.9751V127.382H79.8118L77.4494 123.561V127.382H76.3756V121.57H77.5031L79.9013 125.463ZM17.6914 106.215L21.7182 100.331L22.6131 101.264L21.5751 102.699L22.5236 103.685L23.9912 102.717L24.8323 103.596L18.801 107.381L17.6914 106.215ZM37.7718 100.779L38.9172 100.744C38.8814 101.174 38.7383 101.587 38.5951 101.981C38.5414 102.179 38.4698 102.394 38.3982 102.609L37.8076 104.654L36.3401 109.803C36.0537 110.807 35.7674 111.812 35.4989 112.744L34.2103 117.247L34.3356 117.211C34.3356 117.211 34.3356 117.265 34.3356 117.283C34.4609 117.247 34.783 117.139 35.1947 116.996C35.8926 116.817 36.5906 116.583 37.3065 116.332C38.1834 116.009 39.0962 115.686 40.0089 115.507C41.5481 115.202 42.9977 114.933 44.4295 114.825C45.5928 114.754 46.774 114.754 47.9015 114.843C48.7785 114.933 49.6733 115.076 50.586 115.328C52.1431 115.722 53.0558 116.207 53.6464 116.547C53.9507 116.691 54.1654 116.817 54.3981 116.906C54.5234 116.978 54.6487 117.05 54.756 117.139C55.1319 117.426 55.1677 117.48 55.633 117.731C56.1341 117.391 56.5457 117.086 56.9574 116.817C57.1542 116.727 57.3869 116.619 57.6374 116.494C58.1922 116.225 58.9081 115.866 59.8567 115.543C61.8611 114.951 63.8835 114.736 65.9237 114.807C66.5859 114.843 67.266 114.897 67.9461 114.969C69.0378 115.112 70.1116 115.31 70.9528 115.525L74.8722 116.673C74.8722 116.673 75.0512 116.745 75.1407 116.781C75.427 116.906 75.7134 117.014 76.0713 117.086C76.2682 117.157 76.465 117.229 76.7693 117.301C76.7693 117.265 76.7693 117.211 76.7693 117.157L76.7335 116.691C76.6798 116.135 75.606 112.511 74.5143 108.852C73.3689 105.049 72.2056 101.174 72.2056 100.779H73.4047L79.0243 117.929L79.2033 118.503H56.9037C56.8679 118.646 56.7963 118.754 56.7247 118.862C56.6352 118.969 56.5457 119.077 56.4205 119.149C55.9372 119.471 55.1856 119.454 54.6665 119.149C54.237 118.915 54.2549 118.915 54.1475 118.485H31.8121L32.0985 117.642L37.7181 100.833L37.7718 100.779ZM38.8098 107.793C39.7226 105.121 40.6353 102.412 41.0112 100.833L41.1364 100.349L41.5481 99.0393C41.7986 98.4474 41.9239 98.5729 42.5861 98.4653C45.8076 97.8733 48.8142 97.6401 52.0536 98.6447C52.68 98.842 53.2885 99.1829 53.8433 99.4699C54.4876 99.8107 54.756 100.134 55.3466 100.439V116.655C55.1856 116.547 54.9887 116.314 54.7739 116.045C53.4854 114.287 51.4988 113.247 49.2617 112.744C49.1364 112.709 48.9932 112.691 48.8679 112.673C47.6688 112.404 46.4697 112.332 45.3064 112.368C43.6599 112.386 42.0313 112.601 40.5816 112.96L36.877 114.018C36.877 114.018 36.8412 114.018 36.8233 114.018L38.4877 108.69C38.5951 108.385 38.7025 108.062 38.7919 107.758L38.8098 107.793ZM55.8835 117.086L55.7583 117.175V117.139L55.8835 117.086ZM71.7581 100.833C72.0087 101.892 72.8499 104.726 73.7626 107.758C74.8185 111.309 75.9639 115.166 76.3219 116.673C76.2861 116.673 76.2503 116.673 76.2145 116.673L76.0892 116.619C75.946 116.565 75.8029 116.512 75.6418 116.458C73.0646 115.525 70.3085 114.772 67.5345 114.485C66.9439 114.431 66.3533 114.395 65.7627 114.377C65.6195 114.377 65.4763 114.377 65.3331 114.377C65.2258 114.377 65.1184 114.377 65.011 114.377C63.0781 114.377 61.5569 114.646 60.3578 114.987C59.9819 115.094 59.5882 115.202 59.2124 115.328C58.1207 115.704 57.4406 116.063 56.8321 116.476C56.7605 116.512 56.6889 116.53 56.6352 116.547C56.6531 116.512 56.6889 116.476 56.7068 116.44C56.8679 116.189 57.1005 115.848 57.6374 115.417C58.5502 114.664 59.445 114.144 60.3578 113.767C60.4473 113.731 60.5189 113.695 60.6083 113.659C60.9305 113.534 61.2526 113.444 61.5748 113.354C62.9349 112.978 64.4204 112.888 66.1743 112.888C67.266 112.888 68.7872 113.103 70.2548 113.426C71.8655 113.767 73.3868 114.233 74.1921 114.592L74.7648 114.879V114.664C74.7648 114.664 74.8901 114.682 74.9438 114.682L74.7469 114.072C74.6753 113.39 74.3174 112.332 73.9774 111.453C73.8163 110.986 73.6731 110.592 73.6015 110.305C73.3868 109.551 73.1541 108.888 72.9035 108.206C72.7246 107.632 72.5277 107.076 72.3308 106.43C71.8655 104.618 71.2212 102.681 70.5948 100.779H71.7402V100.869L71.7581 100.833ZM72.0982 106.986C72.0982 106.986 72.0982 107.04 72.1161 107.058L74.3174 114.018C74.3174 114.018 74.3174 114.072 74.3174 114.108C74.0847 114.036 73.8521 113.946 73.6194 113.875C73.3689 113.785 73.1183 113.695 72.8857 113.623C71.6866 113.265 70.4517 112.942 69.1989 112.727C67.9282 112.493 66.6396 112.35 65.2794 112.35C63.8298 112.35 62.3801 112.601 61.0558 113.031C60.4831 113.211 59.9283 113.426 59.3735 113.713C58.5323 114.144 57.7627 114.646 57.1542 115.22C57.0826 115.292 57.0111 115.346 56.9574 115.417C56.6531 115.704 56.4026 116.009 56.1878 116.332V116.368C56.0983 116.512 55.9909 116.619 55.7762 116.691V100.474C56.3131 100.331 56.1341 100.277 56.5815 99.9363C56.8858 99.7031 57.0826 99.5955 57.4048 99.434C61.2168 97.4607 65.4226 97.7478 69.521 98.6985L70.04 100.349H70.0042L72.0982 106.986ZM38.1477 108.565C37.3423 110.951 36.5727 113.247 36.2506 114.646L37.0023 114.431C37.4318 114.377 38.0045 114.215 38.7561 114C40.5101 113.498 43.1409 112.762 45.9686 112.798C46.6129 112.798 47.2572 112.852 47.8836 112.942C47.9552 112.942 48.0268 112.96 48.0805 112.978C49.9239 113.283 51.803 113.982 53.5211 115.381C53.9149 115.704 54.2191 116.045 54.4697 116.332C54.5234 116.404 54.5771 116.476 54.6308 116.547C54.6129 116.547 54.595 116.547 54.5771 116.53C54.2728 116.332 53.9507 116.153 53.6106 115.973C53.1274 115.74 52.6263 115.525 52.1252 115.328C51.0693 114.933 49.8881 114.664 48.6711 114.52C48.6353 114.52 48.5995 114.52 48.5637 114.52C48.5279 114.52 48.4921 114.52 48.4563 114.52C47.0603 114.341 45.7002 114.341 44.34 114.449C42.4787 114.574 40.6532 114.897 39.0604 115.31C38.094 115.579 36.6801 116.081 35.6242 116.44L35.1768 116.601C35.0694 116.637 34.962 116.655 34.8725 116.673C35.0515 115.92 35.4273 114.574 35.8568 113.014C36.9486 109.085 38.4877 103.847 38.7919 102.896L38.953 102.394C39.1141 101.874 39.2931 101.353 39.4183 100.833V100.744H40.5995L38.1477 108.565ZM73.7447 100.349H71.6508H70.4696C70.2548 99.6672 70.04 99.0035 69.8432 98.3577L69.6284 98.3039C67.5524 97.8195 65.4405 97.4966 63.3645 97.5504C61.2705 97.6222 59.1945 98.0527 57.2437 99.0573C57.0826 99.147 56.9574 99.2187 56.8142 99.3084C56.671 99.3802 56.5278 99.4878 56.3668 99.6134C56.2057 99.739 56.0983 99.8466 56.0267 99.9183C55.973 99.9722 55.9551 100.008 55.7225 100.062L55.5793 100.098C55.2929 99.9542 55.0961 99.8107 54.8813 99.6493C54.6487 99.4699 54.3981 99.2905 54.0581 99.1111L53.8791 99.0214C53.3601 98.7344 52.7874 98.4294 52.1968 98.2501C50.5324 97.7298 48.9216 97.5325 47.3288 97.5325C45.736 97.5325 44.161 97.7478 42.5324 98.0527C42.4071 98.0527 42.2997 98.0886 42.1924 98.0886C41.6555 98.1604 41.4765 98.1783 41.208 98.86V98.8958L40.7427 100.331H38.9709L37.5034 100.367L35.2841 107.022C22.7026 99.9004 14.2015 86.3747 14.2015 70.8757C14.2015 47.968 32.7249 29.4016 55.5793 29.4016C78.4337 29.4016 96.9571 47.968 96.9571 70.8757C96.9571 86.3747 88.4918 99.8825 75.9281 106.986C75.1944 104.762 74.4606 102.555 73.7447 100.331V100.349ZM25.2439 112.942L23.8122 111.848L25.8703 107.704L22.4162 110.753L20.9845 109.641L25.2439 104.098L26.1388 104.816L22.3267 109.713L27.0694 105.515L27.66 105.982L24.8323 111.632L28.5907 106.699L29.5034 107.417L25.2439 112.96V112.942ZM88.3307 110.61C88.2949 111.076 88.0444 111.471 87.597 111.83C87.1137 112.188 86.6663 112.35 86.1831 112.26C85.7178 112.17 85.2883 111.883 84.8766 111.363C84.8229 111.309 84.805 111.273 84.7692 111.238C84.7513 111.238 84.7334 111.184 84.7155 111.166L85.6104 110.448L85.7357 110.592C85.9683 110.897 86.1831 111.076 86.38 111.13C86.5589 111.184 86.7737 111.13 86.9706 110.969C87.1316 110.861 87.2032 110.717 87.2211 110.538C87.2211 110.377 87.1674 110.215 87.0242 110.036C86.8453 109.803 86.4515 109.695 85.843 109.713L85.0019 109.749C84.4292 109.785 83.9818 109.749 83.6596 109.587C83.3375 109.462 83.0332 109.211 82.7648 108.834C82.371 108.332 82.1921 107.847 82.2458 107.363C82.2995 106.879 82.5679 106.466 83.0511 106.071C83.5522 105.659 84.0355 105.515 84.5187 105.605C85.0019 105.695 85.4493 106.035 85.9146 106.609C85.9683 106.663 86.0399 106.771 86.1473 106.914V106.95L85.2167 107.704L84.9482 107.345C84.6797 107.004 84.4471 106.789 84.2681 106.735C84.107 106.681 83.9102 106.735 83.7312 106.879C83.5164 107.022 83.4091 107.201 83.3912 107.399C83.3912 107.596 83.4449 107.793 83.6238 108.009C83.7491 108.188 83.8923 108.296 84.0713 108.35C84.2323 108.421 84.5187 108.439 84.8945 108.439H85.682C86.3621 108.439 86.8095 108.475 87.0958 108.583C87.3643 108.708 87.6327 108.924 87.8833 109.228C88.2412 109.695 88.4023 110.143 88.3486 110.61H88.3307ZM90.1204 109.551L89.3151 108.726L90.8363 107.255L89.7088 106.089L88.2949 107.453L87.5254 106.645L88.9392 105.282L87.6149 103.901L86.0578 105.408L85.2167 104.564L87.6507 102.214L92.5007 107.255L90.1025 109.569L90.1204 109.551ZM95.4716 103.883C95.4 104.17 95.239 104.457 94.9705 104.762C94.541 105.246 94.0936 105.497 93.6282 105.479C93.145 105.479 92.6081 105.174 91.9817 104.654L92.7692 103.775L92.8945 103.883C93.1808 104.134 93.4314 104.277 93.6461 104.313C93.8609 104.349 94.0399 104.277 94.2009 104.098C94.3978 103.883 94.4157 103.65 94.2904 103.398C94.1651 103.147 93.664 102.627 92.7871 101.874C91.8564 101.048 91.23 100.582 90.9616 100.492C90.6931 100.385 90.4605 100.439 90.2636 100.654C90.0846 100.869 90.0488 101.084 90.1383 101.3C90.2278 101.533 90.4963 101.838 90.9258 102.197L90.9974 102.25L90.2278 103.129C90.2278 103.129 90.1741 103.076 90.1204 103.04C90.0846 103.004 90.0488 102.986 90.013 102.95C89.4045 102.43 89.0645 101.927 88.975 101.425C88.8855 100.923 89.0466 100.439 89.4761 99.9542C89.6909 99.7031 89.8878 99.5416 90.1025 99.434C90.3173 99.3084 90.55 99.2546 90.7826 99.2546C91.1227 99.2546 91.4806 99.3622 91.8385 99.5596C92.2144 99.7748 92.7871 100.241 93.5924 100.923C94.1472 101.389 94.541 101.802 94.8273 102.107C95.1316 102.43 95.3105 102.699 95.4 102.914C95.5253 103.273 95.5611 103.578 95.5074 103.865L95.4716 103.883ZM98.711 99.5775L93.7535 98.1065L97.7624 100.905L97.1002 101.82L91.409 97.7657L92.1249 96.7611L97.0823 98.2321L93.0734 95.4157L93.7356 94.5009L99.4268 98.5729L98.711 99.5775ZM100.465 96.8688L99.4268 96.3306L100.375 94.4471L98.9436 93.6936L98.0667 95.4696L97.0823 94.9493L97.9593 93.1914L96.2591 92.3303L95.2747 94.2677L94.2367 93.7295L95.758 90.7338L101.968 93.891L100.483 96.8508L100.465 96.8688ZM102.559 92.5994L96.1875 89.7471L96.6886 88.6529L103.06 91.5051L102.559 92.5994ZM104.51 88.2403C104.313 88.8681 103.973 89.2628 103.543 89.4242C103.096 89.5857 102.505 89.5498 101.718 89.2807L102.093 88.1865L102.255 88.2403C102.613 88.3479 102.899 88.3838 103.114 88.3479C103.328 88.2941 103.472 88.1506 103.543 87.9353C103.633 87.6663 103.579 87.4331 103.364 87.2537C103.149 87.0563 102.505 86.7873 101.396 86.4285C100.214 86.0159 99.4626 85.8186 99.1763 85.8365C98.872 85.8365 98.6752 85.98 98.5857 86.267C98.4962 86.5182 98.5499 86.7334 98.711 86.9128C98.8899 87.0743 99.2479 87.2537 99.7848 87.4331L99.8743 87.4689L99.4984 88.5811C99.4984 88.5811 99.4268 88.5452 99.3553 88.5273C99.3016 88.5273 99.2658 88.5273 99.23 88.4914C98.4604 88.2403 97.9593 87.8815 97.6729 87.4869C97.4045 87.0563 97.3687 86.5541 97.5835 85.9262C97.6729 85.6213 97.7982 85.388 97.9593 85.2087C98.1025 85.0293 98.2993 84.8858 98.532 84.7961C98.8183 84.6526 99.1942 84.6167 99.6058 84.6705C100.053 84.7243 100.751 84.9037 101.753 85.2445C102.451 85.4777 102.97 85.693 103.346 85.8724C103.74 86.0697 104.026 86.2491 104.187 86.4285C104.438 86.6976 104.581 86.9667 104.653 87.2716C104.706 87.5586 104.653 87.8995 104.527 88.2582L104.51 88.2403ZM106.049 83.0022C105.906 83.5762 105.637 83.9709 105.225 84.2041C104.814 84.4373 104.295 84.4911 103.633 84.3297C103.579 84.3297 103.525 84.3297 103.489 84.2938C103.454 84.2938 103.418 84.2938 103.4 84.2938L103.651 83.1816L103.847 83.2175C104.223 83.3072 104.492 83.3072 104.689 83.2175C104.868 83.1457 104.993 82.9843 105.046 82.7152C105.1 82.5358 105.046 82.3744 104.975 82.2309C104.885 82.0873 104.724 81.9976 104.51 81.9438C104.223 81.8721 103.847 82.0515 103.4 82.4641L102.774 83.0022C102.326 83.3969 101.95 83.6301 101.628 83.7377C101.288 83.8274 100.894 83.8274 100.465 83.7377C99.8385 83.5942 99.4089 83.3072 99.1405 82.9125C98.8899 82.4999 98.8184 81.9976 98.9615 81.3877C99.1226 80.7419 99.4089 80.3294 99.8385 80.0962C100.268 79.8809 100.823 79.845 101.557 80.0065C101.628 80.0065 101.753 80.0603 101.932 80.1141H101.968L101.682 81.298L101.252 81.1904C100.823 81.0828 100.519 81.0648 100.357 81.1366C100.196 81.1904 100.071 81.3519 100.017 81.5851C99.9638 81.8362 99.9817 82.0515 100.089 82.2129C100.196 82.3744 100.375 82.482 100.644 82.5537C100.859 82.5896 101.038 82.5896 101.217 82.5537C101.378 82.4999 101.61 82.3385 101.915 82.0873L102.523 81.5851C103.042 81.1545 103.418 80.9034 103.704 80.8137C103.991 80.7419 104.331 80.7419 104.706 80.8137C105.279 80.9393 105.673 81.2083 105.941 81.603C106.192 81.9977 106.246 82.464 106.12 83.0201L106.049 83.0022ZM107.14 75.0913L101.36 74.6428L101.199 76.8134L100.017 76.7237L100.268 73.3512L107.23 73.8894L107.14 75.0913ZM107.337 71.0551L100.411 72.7413L100.375 71.4497L102.111 71.073L102.076 69.6917L100.304 69.4227L100.268 68.2028L107.302 69.4406L107.337 71.0551ZM106.8 63.9693C106.979 64.2025 107.105 64.5254 107.14 64.9201C107.23 65.5658 107.105 66.0502 106.765 66.391C106.442 66.7498 105.87 66.9651 105.064 67.0727L104.921 65.9246L105.082 65.8887C105.458 65.8529 105.744 65.7632 105.906 65.6197C106.085 65.4762 106.156 65.2968 106.12 65.0636C106.085 64.7766 105.941 64.5972 105.673 64.5254C105.387 64.4537 104.689 64.4895 103.525 64.633C102.29 64.7766 101.521 64.938 101.27 65.0636C101.002 65.2071 100.894 65.4223 100.93 65.7094C100.966 65.9784 101.091 66.1399 101.324 66.2296C101.539 66.3013 101.95 66.3193 102.505 66.2296H102.595L102.738 67.3597C102.738 67.3597 102.666 67.3597 102.613 67.3956C102.559 67.3956 102.505 67.3956 102.469 67.3956C101.664 67.4853 101.055 67.3956 100.626 67.1445C100.196 66.8754 99.9459 66.409 99.8564 65.7811C99.8206 65.4762 99.8564 65.2071 99.8922 64.9739C99.9459 64.7407 100.071 64.5254 100.232 64.346C100.447 64.0949 100.751 63.8976 101.145 63.7541C101.557 63.6105 102.272 63.485 103.328 63.3594C104.062 63.2697 104.617 63.2159 105.046 63.2159C105.476 63.2159 105.798 63.2697 106.013 63.3594C106.353 63.485 106.621 63.6644 106.782 63.9155L106.8 63.9693ZM106.478 61.6373L99.6237 62.8751L99.3911 61.709L106.263 60.4533L106.478 61.6373ZM105.369 56.7759C105.476 57.1706 105.53 57.4755 105.53 57.7087C105.53 57.9419 105.458 58.1751 105.351 58.3725C105.172 58.6595 104.921 58.8927 104.599 59.09C104.259 59.2694 103.74 59.4847 103.006 59.682C102.058 59.969 101.36 60.1304 100.948 60.1663C100.536 60.2201 100.161 60.2022 99.8564 60.1484C99.5342 60.0766 99.2837 59.9331 99.1047 59.6999C98.9257 59.4667 98.7468 59.0362 98.5678 58.4263L98.1025 56.8297L104.832 54.9282L105.351 56.7939L105.369 56.7759ZM104.295 53.4035L103.221 53.816L102.451 51.8428L100.948 52.4348L101.664 54.2824L100.644 54.6771L99.9101 52.8474L98.1204 53.547L98.9257 55.574L97.834 56.0046L96.617 52.8653L103.114 50.3359L104.313 53.4393L104.295 53.4035ZM100.519 45.1517L97.0466 48.2012L101.396 46.6944L102.29 48.2551L96.2591 51.771L95.6864 50.7844L101.055 47.699L95.0958 49.7619L94.7378 49.1161L99.4805 44.9544L94.1293 48.0936L93.5566 47.107L99.5879 43.591L100.483 45.1517H100.519ZM95.6148 38.0121L96.617 39.2857L92.0354 44.775L91.23 43.7525L92.4112 42.425L91.5343 41.3487L89.9772 42.1739L89.2077 41.2231L95.579 38.03L95.6148 38.0121ZM92.6081 34.6755C93.0734 35.1419 93.3061 35.5724 93.2882 35.985C93.2882 36.3976 93.0555 36.8102 92.5723 37.2587C92.2502 37.5816 91.928 37.7789 91.6596 37.8507C91.3553 37.9224 91.0869 37.8507 90.8363 37.6713C91.1227 38.2094 90.9616 38.7655 90.3352 39.4113C90.2994 39.4113 90.2815 39.4651 90.2636 39.4651L89.6193 40.1468C89.4403 40.3441 89.2972 40.5056 89.2256 40.667C89.1361 40.8105 89.1003 40.954 89.0824 41.1155L88.0981 40.093C88.1697 39.9854 88.2412 39.8777 88.3486 39.7521C88.456 39.6266 88.6171 39.4651 88.8139 39.2499L89.333 38.7296L89.4761 38.5861C89.7625 38.3171 89.9057 38.048 89.9057 37.8327C89.9057 37.6175 89.7446 37.3304 89.3867 36.9896L89.1003 36.6846L86.899 38.8193L86.0757 37.9942L91.1048 33.1328L92.5902 34.6935L92.6081 34.6755ZM88.8139 31.1057L85.682 37.5098L84.6618 36.7205L85.4851 35.124L84.3934 34.2809L83.0869 35.4828L82.1205 34.7114L87.5612 30.1012L88.8318 31.0878L88.8139 31.1057ZM82.7111 26.7108L84.465 27.8409C85.0019 28.1817 85.3061 28.5764 85.3598 28.971C85.4135 29.3836 85.2704 29.868 84.8766 30.4599C84.5008 31.0519 84.0891 31.3927 83.6775 31.5183C83.2301 31.6439 82.7827 31.5183 82.2637 31.1954L81.512 30.7111L79.9013 33.2225L78.9169 32.5588L82.7111 26.6749V26.7108ZM72.7246 27.2669C72.9035 26.8901 73.1362 26.5852 73.4405 26.3879C73.7268 26.1547 74.1742 25.9753 74.729 25.8138C74.6753 25.4551 74.6753 25.1501 74.6932 24.9348C74.6932 24.6837 74.7648 24.4684 74.8543 24.2711C75.0333 23.8765 75.2838 23.6253 75.6239 23.4818C75.9639 23.3383 76.3219 23.3742 76.6977 23.5356C77.1093 23.7329 77.3778 23.9661 77.521 24.289C77.6462 24.594 77.6283 24.9528 77.4494 25.3295C77.3062 25.6524 77.0914 25.9215 76.823 26.1367C76.5724 26.352 76.2503 26.4955 75.8923 26.5673L76.0176 28.1997C76.125 28.0741 76.2324 27.9306 76.3398 27.7871C76.4293 27.6256 76.5187 27.4462 76.6082 27.231L76.6619 27.1413L77.5568 27.5359C77.3599 27.9844 77.1272 28.3432 76.8946 28.6661C76.644 28.971 76.3935 29.2222 76.1071 29.4195L76.2324 30.9981L75.0691 30.4779V29.9756C74.8185 30.0832 74.568 30.137 74.3174 30.1191C74.0847 30.1191 73.8163 30.0473 73.5478 29.9218C73.0109 29.6886 72.7067 29.3298 72.5456 28.8634C72.4024 28.397 72.4561 27.8588 72.7246 27.2669ZM65.9595 23.3562C66.1564 22.6746 66.3354 22.1723 66.5143 21.7776C66.6933 21.4009 66.8723 21.1139 67.087 20.9525C67.3197 20.7193 67.5882 20.5757 67.8924 20.5219C68.1966 20.4681 68.5546 20.5219 68.9304 20.6116C69.6105 20.8089 70.04 21.1139 70.2548 21.5444C70.4875 21.975 70.4875 22.5311 70.2906 23.2665L70.2369 23.428L69.1631 23.123V23.0513C69.3063 22.6566 69.3242 22.3158 69.2347 22.1005C69.1452 21.8494 68.9662 21.6879 68.6978 21.5982C68.3577 21.5086 68.0893 21.5982 67.8745 21.8314C67.6776 22.0826 67.4092 22.8001 67.0691 24.02C66.7828 24.9528 66.6754 25.6165 66.6933 25.9753C66.7291 26.334 66.8902 26.5493 67.2123 26.639C67.5166 26.7287 67.7671 26.6749 67.964 26.4776C68.1609 26.2982 68.3398 25.9215 68.5009 25.3833L68.5546 25.1501L67.7492 24.9169L68.0535 23.8585L69.9685 24.3967L68.9483 28.0741L68.1609 27.8588L68.2861 27.0875C68.0714 27.3745 67.8387 27.5539 67.5882 27.6436C67.3376 27.7333 67.0333 27.7153 66.6933 27.6077C66.0311 27.4283 65.6732 27.0337 65.5479 26.4237C65.4405 25.8138 65.5837 24.8093 65.9774 23.3921L65.9595 23.3562ZM60.8768 19.3021L62.0938 19.4456L63.1497 24.5043L63.7224 19.6609L64.8499 19.7864L64.0088 26.7466L62.7918 26.5852L61.7179 21.5086L61.1452 26.3879L60.0177 26.2444L60.8947 19.3021H60.8768ZM58.2638 19.0868L59.4629 19.1765L58.926 26.1726L57.7269 26.065L58.2638 19.0868ZM54.2191 24.9169C54.3265 25.0604 54.5055 25.1501 54.756 25.1322C55.0066 25.1322 55.2035 25.0425 55.3287 24.899C55.454 24.7554 55.5256 24.5581 55.5077 24.2711C55.5077 24.0738 55.454 23.8765 55.3466 23.7329C55.2571 23.5894 55.0424 23.3921 54.7381 23.1768L54.0938 22.7104C53.539 22.3158 53.2169 21.9929 53.0558 21.7597C52.9126 21.4906 52.8232 21.1677 52.8232 20.791C52.8232 20.199 52.9484 19.7506 53.2527 19.3918C53.5748 19.051 54.0223 18.8716 54.5771 18.8536C55.1677 18.8536 55.633 18.9971 55.9551 19.3559C56.2952 19.6968 56.4741 20.1811 56.492 20.8628V21.1139L55.3466 21.1498V20.9525C55.3466 20.5757 55.275 20.3067 55.1498 20.1452C55.0245 19.9838 54.8276 19.8941 54.5771 19.912C54.3802 19.912 54.2191 19.9838 54.1117 20.1093C54.0044 20.2349 53.9507 20.4143 53.9686 20.6296C53.9686 20.9345 54.237 21.2574 54.7381 21.5803H54.756L55.4361 22.0647C55.9193 22.3875 56.2594 22.6925 56.4205 22.9795C56.5994 23.2845 56.6889 23.6612 56.7068 24.1276C56.7068 24.7554 56.5636 25.2398 56.2415 25.5986C55.9193 25.9573 55.4361 26.1547 54.8276 26.1726C54.1654 26.1726 53.7001 26.0112 53.3601 25.6703C53.0379 25.3115 52.859 24.7734 52.8232 24.02C52.8232 23.9303 52.8232 23.8047 52.8232 23.6253V23.5894L54.0223 23.5536V24.02C54.0223 24.4505 54.0938 24.7375 54.2012 24.881L54.2191 24.9169ZM49.3869 19.3918C50.0312 19.3021 50.5145 19.3918 50.8366 19.6429C51.1587 19.8941 51.3556 20.3425 51.4451 20.9704C51.4988 21.4368 51.4451 21.7956 51.3377 22.0647C51.2124 22.3517 51.0156 22.5311 50.7113 22.6207C51.3019 22.7104 51.6599 23.1948 51.7851 24.0558C51.7851 24.0917 51.7851 24.1276 51.7851 24.1455L51.9283 25.0604C51.9641 25.3115 52.0357 25.5268 52.0894 25.6883C52.161 25.8318 52.2684 25.9573 52.3757 26.065L50.9619 26.2444C50.9261 26.1188 50.8724 25.9932 50.8366 25.8318C50.8008 25.6703 50.765 25.4551 50.7292 25.168L50.6218 24.4326V24.2352C50.5502 23.8406 50.425 23.5715 50.246 23.428C50.067 23.3024 49.7449 23.2665 49.2617 23.3204L48.85 23.3742L49.2259 26.4237L48.0984 26.5673L47.2393 19.625L49.3869 19.3559V19.3918ZM42.7114 20.6475L43.7494 25.2398C43.8747 25.76 44.0179 26.0829 44.1789 26.2623C44.34 26.4237 44.5727 26.4596 44.8948 26.3879C45.1812 26.3161 45.378 26.1726 45.4496 25.9573C45.5212 25.7421 45.5033 25.3654 45.378 24.8451L44.3221 20.2708L45.4675 20.0017L46.5592 24.7016C46.6487 25.168 46.7203 25.5089 46.7203 25.7062C46.7203 25.9394 46.6845 26.1367 46.595 26.334C46.4876 26.6031 46.3087 26.8363 46.0402 27.0337C45.7897 27.213 45.4854 27.3566 45.1096 27.4462C44.3758 27.6077 43.8568 27.5539 43.4809 27.2848C43.1051 27.0157 42.8188 26.4417 42.6398 25.6165L41.5481 20.9166L42.7293 20.6475H42.7114ZM36.9128 22.5131L40.2416 26.4776L38.434 21.9391L39.4899 21.5086L42.0134 28.0382L40.868 28.4867L37.5213 24.5222L39.3289 29.0787L38.2908 29.4912L35.7495 22.9795L36.9128 22.5131ZM32.0448 24.594L32.6354 25.5627L30.7562 26.6569L31.5795 28.092L33.3513 27.0695L33.924 28.0203L32.1522 29.0428L33.6913 31.6977L32.6533 32.3076L29.1634 26.2623L32.0627 24.5761L32.0448 24.594ZM25.1724 28.9531C25.3155 28.684 25.5482 28.4329 25.9061 28.1817C26.2462 27.9306 26.5683 27.7871 26.8368 27.7512C27.141 27.6974 27.4632 27.7512 27.7853 27.9126C28.0359 28.0203 28.3043 28.2355 28.6086 28.5584C28.9128 28.8813 29.2887 29.3477 29.7003 29.9397C30.1298 30.5496 30.452 31.034 30.6488 31.4286C30.8457 31.8412 30.971 32.1641 30.9889 32.4152C31.0247 32.792 30.9889 33.1149 30.8278 33.366C30.7025 33.6171 30.4699 33.8862 30.1119 34.1374C29.7719 34.3885 29.4497 34.532 29.1634 34.5679C28.877 34.6038 28.5549 34.5679 28.2327 34.4064C28.0001 34.2988 27.7137 34.0835 27.4095 33.7606C27.1052 33.4377 26.7294 32.9713 26.3178 32.3794C25.8703 31.7695 25.5482 31.2672 25.3692 30.8725C25.1545 30.4779 25.0471 30.137 25.0292 29.8859C24.9934 29.5092 25.0292 29.2042 25.1724 28.9531ZM21.235 32.0385L22.0404 32.8816L20.5192 34.3526L21.6288 35.5186L23.0605 34.1553L23.8301 34.9625L22.3983 36.3259L23.7227 37.7251L25.2976 36.2182L26.1209 37.0614L23.6869 39.3934L18.8547 34.3347L21.2529 32.0385H21.235ZM17.9241 35.2316L18.7831 36.003L17.8883 37.0434L22.2909 40.8643L21.4856 41.7792L17.1008 37.9403L16.206 38.9808L15.3469 38.2094L17.9241 35.2137V35.2316ZM12.8771 41.5639L16.725 44.2906C17.1724 44.6135 17.4946 44.775 17.7093 44.7929C17.942 44.7929 18.1568 44.6853 18.3357 44.4162C18.5147 44.1651 18.5505 43.9319 18.461 43.7166C18.3715 43.5193 18.1031 43.2502 17.6556 42.9273L13.8257 40.2006L14.5237 39.2499L18.461 42.0483C18.8368 42.3174 19.1053 42.5326 19.2664 42.712C19.4095 42.8735 19.5169 43.0529 19.5885 43.2502C19.678 43.5372 19.6959 43.8242 19.6422 44.1292C19.5706 44.4341 19.4274 44.757 19.1948 45.062C18.7652 45.6719 18.3178 45.9769 17.8704 46.0307C17.4051 46.0665 16.8324 45.8333 16.1344 45.3311L12.1971 42.5326L12.895 41.5639H12.8771ZM11.4991 43.6628L12.4834 44.2368L11.7854 45.4387L16.8503 48.3448L16.2418 49.3852L11.1769 46.4791L10.479 47.6631L9.49462 47.0891L11.4812 43.6448L11.4991 43.6628ZM8.95771 48.3268L15.3111 51.1791L14.81 52.2733L8.4566 49.4211L8.95771 48.3268ZM8.06287 50.2642L9.13668 50.6947L8.61767 51.9863L14.0405 54.1569L13.5751 55.2691L8.17025 53.0985L7.65124 54.3721L6.57742 53.9416L8.04497 50.2463L8.06287 50.2642ZM5.5394 57.0091C5.70047 56.4351 5.98682 56.0584 6.41635 55.8431C6.84587 55.6278 7.36489 55.6099 8.00918 55.7893C8.06287 55.7893 8.11656 55.8252 8.15235 55.8431C8.18815 55.8431 8.22394 55.8431 8.24184 55.8431L7.93759 56.9374L7.74072 56.9015C7.38278 56.7939 7.09643 56.7759 6.91746 56.8297C6.72059 56.9015 6.59532 57.0629 6.52373 57.3141C6.47004 57.5114 6.48793 57.6729 6.57742 57.8164C6.6669 57.9599 6.81008 58.0496 7.02484 58.1213C7.31119 58.1931 7.68703 58.0496 8.15235 57.6549L8.81454 57.1347C9.26196 56.7759 9.6557 56.5427 9.97784 56.471C10.3179 56.3813 10.7116 56.4171 11.159 56.5427C11.7675 56.7042 12.1792 57.0091 12.4297 57.4217C12.6624 57.8343 12.6982 58.3366 12.5371 58.9286C12.3581 59.5743 12.0539 59.969 11.6244 60.1843C11.1948 60.3816 10.6221 60.3995 9.90625 60.1843C9.83467 60.1843 9.70939 60.1304 9.53042 60.0587H9.49462L9.83467 58.9106L10.2642 59.0362C10.6758 59.1438 10.9801 59.1797 11.1411 59.1259C11.3201 59.0721 11.4454 58.9286 11.517 58.6954C11.5886 58.4442 11.5707 58.2289 11.4633 58.0675C11.3738 57.8881 11.1769 57.7805 10.9264 57.7087C10.7116 57.637 10.5326 57.637 10.3537 57.7087C10.1926 57.7625 9.94205 57.8881 9.6378 58.1393L9.0114 58.6057C8.4745 59.0182 8.08076 59.2514 7.79441 59.3232C7.49016 59.395 7.15012 59.377 6.79218 59.2694C6.21948 59.1079 5.84364 58.8209 5.59309 58.4263C5.36043 58.0316 5.32463 57.5652 5.4857 57.0091H5.5394ZM4.37609 63.2159L9.47673 62.4266L4.66244 61.5835L4.87721 60.4713L11.7496 61.727L11.517 62.9289L6.39845 63.7182L11.2127 64.5792L11.0159 65.6914L4.14343 64.4357L4.37609 63.2338V63.2159ZM4.03605 66.2834L10.998 66.8216L10.9085 68.0055L3.94657 67.4673L4.03605 66.2834ZM3.82129 71.4677L10.8011 71.2524L10.8369 72.4543L3.85708 72.6695L3.82129 71.4677ZM4.21502 77.1901L8.85033 74.9119L4.01815 75.5397L3.87498 74.4275L10.8011 73.5844L10.9622 74.7863L6.30896 77.0825L11.159 76.4367L11.3022 77.5668L4.37609 78.4099L4.21502 77.1901ZM4.85931 81.2083L11.3201 78.2126L11.6244 79.4683L9.97784 80.1858L10.3 81.5312L12.0718 81.4416L12.3581 82.6255L5.21725 82.7869L4.85931 81.2083ZM6.41635 87.0922C6.23738 86.5541 6.23738 86.1415 6.41635 85.7827C6.59532 85.4419 6.95326 85.1728 7.49016 84.9755C7.91969 84.814 8.29553 84.7602 8.56398 84.814C8.85033 84.8499 9.0651 84.9934 9.19038 85.2266C9.13668 84.9216 9.19038 84.6526 9.42304 84.3835C9.6378 84.1323 9.95994 83.935 10.3895 83.7736C11.0875 83.5404 11.6423 83.4865 12.0718 83.648C12.5013 83.8094 12.8056 84.1862 12.9845 84.7423L13.6467 86.6079L7.04274 88.904L6.39845 87.0743L6.41635 87.0922ZM8.81454 93.1375L13.0919 91.1822C13.593 90.967 13.9152 90.7517 14.0226 90.5723C14.1478 90.375 14.1478 90.1418 14.0226 89.8548C13.8973 89.5677 13.7183 89.4063 13.5035 89.3704C13.2709 89.3704 12.895 89.4422 12.4118 89.6754L8.15235 91.6128L7.65124 90.5364L12.036 88.5452C12.4834 88.3479 12.8056 88.2224 13.0024 88.1865C13.2172 88.1327 13.432 88.1327 13.6288 88.1865C13.9331 88.2582 14.1836 88.3838 14.4163 88.5991C14.6489 88.8143 14.8458 89.1013 15.0069 89.4422C15.3111 90.1238 15.3827 90.6441 15.1859 91.0746C14.989 91.5051 14.5058 91.8998 13.7183 92.2406L9.33355 94.2318L8.83244 93.1375H8.81454ZM11.6065 98.2859L13.9868 96.9047L13.1635 95.4875L10.8011 96.8688L10.1926 95.8283L16.2239 92.3303L16.8324 93.3528L14.0941 94.9314L14.9174 96.3665L17.6377 94.77L18.2462 95.8104L12.215 99.3084L11.6065 98.2859ZM14.6489 102.609C14.4163 102.304 14.2373 102.035 14.1478 101.802C14.0583 101.569 14.0405 101.335 14.0762 101.12C14.1299 100.779 14.2731 100.474 14.4879 100.187C14.7205 99.8825 15.1501 99.4878 15.7407 99.0214C16.5281 98.4115 17.0829 98.0168 17.4409 97.8016C17.8167 97.6043 18.1568 97.4787 18.461 97.4069C18.7831 97.3531 19.0695 97.4069 19.3022 97.5325C19.5706 97.676 19.8928 97.9989 20.2865 98.5012L21.3066 99.7928L15.8123 104.116L14.6132 102.591L14.6489 102.609Z" fill="white"/>
<path d="M99.8028 58.7133C99.8743 58.821 99.9638 58.8748 100.089 58.9107C100.286 58.9645 100.554 58.9824 100.877 58.9466C101.199 58.8927 101.682 58.7851 102.344 58.5878C103.006 58.4084 103.454 58.2469 103.74 58.1034C104.026 57.9779 104.223 57.8164 104.349 57.637C104.402 57.5473 104.438 57.4397 104.438 57.3321C104.438 57.2065 104.402 57.0451 104.331 56.8119L104.188 56.3096L99.4448 57.637L99.6059 58.1572C99.6775 58.4263 99.7491 58.6057 99.8207 58.6954L99.8028 58.7133Z" fill="white"/>
<path d="M95.1138 39.4292L92.4829 40.8284L93.1272 41.6357L95.1138 39.4292Z" fill="white"/>
<path d="M19.4274 130.575C19.4274 130.575 19.338 130.539 19.3022 130.522C19.3022 130.522 19.3022 130.522 19.2664 130.522C19.2306 130.504 19.1948 130.468 19.159 130.45C19.159 130.45 19.159 130.438 19.159 130.414C19.159 130.414 19.1232 130.378 19.1053 130.342H19.0874C19.0874 130.342 19.0874 130.252 19.0874 130.217V124.566H5.80786L14.3626 129.069C14.5237 129.158 14.6132 129.266 14.6132 129.391C14.6132 129.535 14.5237 129.643 14.3626 129.732L5.80786 134.235H31.4542L19.4453 130.575H19.4274Z" fill="white"/>
<path d="M96.7781 129.05L105.333 124.548H92.107V130.199C92.107 130.199 92.107 130.27 92.0712 130.306C92.0712 130.342 92.0712 130.36 92.0175 130.378C92.0175 130.378 92.0175 130.39 92.0175 130.414C92.0175 130.414 91.946 130.468 91.9102 130.486C91.9102 130.486 91.8207 130.539 91.7849 130.557H91.7491L79.7402 134.217H105.387L96.8318 129.714C96.6708 129.624 96.5813 129.517 96.5813 129.373C96.5813 129.248 96.6708 129.14 96.8318 129.05H96.7781Z" fill="white"/>
<path d="M33.7631 133.948V130.629H22.8459L33.7631 133.948Z" fill="white"/>
<path d="M77.3601 130.629V133.948L88.313 130.629H77.3601Z" fill="white"/>
<path d="M65.226 123.866C65.4228 123.831 65.5839 123.777 65.7092 123.651C65.8166 123.543 65.8881 123.382 65.8881 123.203C65.8881 123.005 65.8345 122.862 65.7271 122.754C65.6376 122.647 65.4765 122.575 65.2797 122.557C65.1723 122.557 64.8322 122.521 64.2953 122.521H63.6152V123.866H64.3848C64.8501 123.866 65.1365 123.866 65.2439 123.866H65.226Z" fill="white"/>
<path d="M44.716 122.88C44.5728 122.736 44.3938 122.647 44.1612 122.593C44.0001 122.557 43.6779 122.539 43.2126 122.539H42.6936V126.396H43.5527C43.8748 126.396 44.1254 126.396 44.2685 126.342C44.4654 126.288 44.6086 126.216 44.7339 126.091C44.877 125.983 44.9665 125.786 45.056 125.535C45.1276 125.266 45.1634 124.907 45.1634 124.476C45.1634 124.046 45.1276 123.669 45.056 123.454C44.9665 123.203 44.8591 123.005 44.716 122.88Z" fill="white"/>
<path d="M36.0359 125.086H37.6287L36.8234 122.916L36.0359 125.086Z" fill="white"/>
<path d="M70.8813 125.086H72.4742L71.6867 122.916L70.8813 125.086Z" fill="white"/>
<path d="M65.5839 124.925C65.4228 124.871 65.0649 124.835 64.5459 124.835H63.6152V126.396H64.689C65.1186 126.396 65.387 126.396 65.5123 126.36C65.6734 126.324 65.8166 126.252 65.9418 126.127C66.0492 126.001 66.1029 125.84 66.1029 125.624C66.1029 125.445 66.0671 125.301 65.9776 125.176C65.8881 125.05 65.7629 124.961 65.6018 124.907L65.5839 124.925Z" fill="white"/>
</g>
<defs>
<clipPath id="clip0_0_1876">
<rect width="110.782" height="134.217" fill="white" transform="translate(0.17041)"/>
</clipPath>
</defs>
</svg>
